<svg width="304" height="80" viewBox="0 0 304 80" fill="none" xmlns="http://www.w3.org/2000/svg">
<g filter="url(#filter0_d_5_38)">
<rect x="2" y="1" width="294" height="70" rx="10" fill="#F2F3F3" shape-rendering="crispEdges"/>
<rect x="2.5" y="1.5" width="293" height="69" rx="9.5" stroke="black" shape-rendering="crispEdges"/>
<path d="M49.8789 15.7363H53.1602L60.543 31H57.291L56.0703 28.4316H47.1543L45.9727 31H42.7109L49.8789 15.7363ZM54.8496 25.8828L51.5488 18.9492L48.3359 25.8828H54.8496ZM61.8711 23.2266C61.8711 22.1523 62.0729 21.1497 62.4766 20.2188C62.8802 19.2812 63.4694 18.4674 64.2441 17.7773C65.0189 17.0872 65.9694 16.5436 67.0957 16.1465C68.2285 15.7493 69.5241 15.5508 70.9824 15.5508C71.5098 15.5508 72.0371 15.5801 72.5645 15.6387C73.0983 15.6908 73.6224 15.7754 74.1367 15.8926C74.6576 16.0098 75.1621 16.1595 75.6504 16.3418C76.1452 16.5176 76.6139 16.7292 77.0566 16.9766L75.6309 19.3203C75.3639 19.1641 75.0612 19.0241 74.7227 18.9004C74.3841 18.7702 74.0195 18.6628 73.6289 18.5781C73.2448 18.487 72.8444 18.4186 72.4277 18.373C72.0176 18.3275 71.6042 18.3047 71.1875 18.3047C70.224 18.3047 69.3646 18.4284 68.6094 18.6758C67.8542 18.9167 67.2161 19.2585 66.6953 19.7012C66.1745 20.1374 65.7773 20.6615 65.5039 21.2734C65.2305 21.8854 65.0938 22.556 65.0938 23.2852C65.0938 24.0404 65.237 24.7337 65.5234 25.3652C65.8099 25.9967 66.2168 26.5404 66.7441 26.9961C67.2715 27.4518 67.9095 27.8099 68.6582 28.0703C69.4069 28.3242 70.2435 28.4512 71.168 28.4512C71.9036 28.4512 72.5775 28.3698 73.1895 28.207C73.8014 28.0378 74.3353 27.8001 74.791 27.4941C75.2467 27.1882 75.6178 26.8203 75.9043 26.3906C76.1908 25.9544 76.3796 25.4661 76.4707 24.9258H71.1387V22.377H79.2539V22.3867L79.2637 22.377C79.4264 23.1582 79.4753 23.9199 79.4102 24.6621C79.3516 25.3978 79.1823 26.0944 78.9023 26.752C78.6289 27.403 78.2513 28.002 77.7695 28.5488C77.2878 29.0957 76.7116 29.5677 76.041 29.9648C75.3704 30.3555 74.6087 30.6615 73.7559 30.8828C72.903 31.0977 71.9688 31.2051 70.9531 31.2051C69.5339 31.2051 68.2611 30.9967 67.1348 30.5801C66.015 30.1634 65.0645 29.5938 64.2832 28.8711C63.502 28.1484 62.903 27.3021 62.4863 26.332C62.0762 25.362 61.8711 24.3268 61.8711 23.2266ZM82.916 15.7363H95.9141V18.4512H86.0117V21.498H94.7812V24.0469H86.0117V28.2949H96.1191V31H82.916V15.7363ZM99.5371 15.7363H102.633L112.145 20.7168V15.7363H115.24V31H112.145V23.998L102.633 19.0469V31H99.5371V15.7363ZM119.557 15.7363H125.152C126.786 15.7363 128.206 15.9121 129.41 16.2637C130.615 16.6152 131.611 17.1198 132.398 17.7773C133.193 18.4284 133.782 19.2227 134.166 20.1602C134.557 21.0911 134.752 22.1393 134.752 23.3047C134.752 24.4115 134.56 25.4368 134.176 26.3809C133.792 27.3184 133.206 28.1322 132.418 28.8223C131.63 29.5059 130.634 30.043 129.43 30.4336C128.225 30.8177 126.806 31.0098 125.172 31.0098L119.557 31V15.7363ZM125.914 28.3242C126.839 28.3242 127.649 28.207 128.346 27.9727C129.042 27.7318 129.622 27.3932 130.084 26.957C130.553 26.5208 130.904 25.9935 131.139 25.375C131.373 24.7565 131.49 24.0664 131.49 23.3047C131.49 22.556 131.373 21.8822 131.139 21.2832C130.904 20.6777 130.553 20.1667 130.084 19.75C129.622 19.3268 129.042 19.0013 128.346 18.7734C127.649 18.5456 126.839 18.4316 125.914 18.4316H122.652V28.3242H125.914ZM143.062 15.7363H146.344L153.727 31H150.475L149.254 28.4316H140.338L139.156 31H135.895L143.062 15.7363ZM148.033 25.8828L144.732 18.9492L141.52 25.8828H148.033ZM156.109 15.7363H159.205L164.752 21.3027L170.299 15.7363H173.395V31H170.299V20.0234L164.752 25.3652L159.205 20.0234V31H156.109V15.7363ZM177.74 15.7363H190.738V18.4512H180.836V21.498H189.605V24.0469H180.836V28.2949H190.943V31H177.74V15.7363ZM194.361 15.7363H197.457L206.969 20.7168V15.7363H210.064V31H206.969V23.998L197.457 19.0469V31H194.361V15.7363ZM218.98 18.4512H213.346V15.7363H227.711V18.4512H222.076V31H218.98V18.4512ZM230.123 23.3242C230.123 22.1719 230.335 21.1172 230.758 20.1602C231.181 19.2031 231.773 18.3828 232.535 17.6992C233.303 17.0091 234.221 16.4753 235.289 16.0977C236.363 15.7201 237.551 15.5312 238.854 15.5312C240.149 15.5312 241.334 15.7201 242.408 16.0977C243.482 16.4753 244.4 17.0091 245.162 17.6992C245.93 18.3828 246.526 19.2031 246.949 20.1602C247.372 21.1172 247.584 22.1719 247.584 23.3242C247.584 24.4831 247.372 25.5475 246.949 26.5176C246.526 27.4811 245.93 28.3112 245.162 29.0078C244.4 29.7044 243.482 30.248 242.408 30.6387C241.334 31.0228 240.149 31.2148 238.854 31.2148C237.551 31.2148 236.363 31.0228 235.289 30.6387C234.221 30.248 233.303 29.7044 232.535 29.0078C231.773 28.3112 231.181 27.4811 230.758 26.5176C230.335 25.5475 230.123 24.4831 230.123 23.3242ZM233.219 23.3242C233.219 24.112 233.359 24.8216 233.639 25.4531C233.925 26.0846 234.319 26.625 234.82 27.0742C235.328 27.5169 235.924 27.8587 236.607 28.0996C237.298 28.3405 238.046 28.4609 238.854 28.4609C239.661 28.4609 240.406 28.3405 241.09 28.0996C241.78 27.8587 242.376 27.5169 242.877 27.0742C243.378 26.625 243.772 26.0846 244.059 25.4531C244.345 24.8216 244.488 24.112 244.488 23.3242C244.488 22.5365 244.345 21.8301 244.059 21.2051C243.772 20.5801 243.378 20.0527 242.877 19.623C242.376 19.1868 241.78 18.8548 241.09 18.627C240.406 18.3991 239.661 18.2852 238.854 18.2852C238.046 18.2852 237.298 18.3991 236.607 18.627C235.924 18.8548 235.328 19.1868 234.82 19.623C234.319 20.0527 233.925 20.5801 233.639 21.2051C233.359 21.8301 233.219 22.5365 233.219 23.3242ZM69.6055 40.7363H75.2012C76.8353 40.7363 78.2546 40.9121 79.459 41.2637C80.6634 41.6152 81.6595 42.1198 82.4473 42.7773C83.2415 43.4284 83.8307 44.2227 84.2148 45.1602C84.6055 46.0911 84.8008 47.1393 84.8008 48.3047C84.8008 49.4115 84.6087 50.4368 84.2246 51.3809C83.8405 52.3184 83.2546 53.1322 82.4668 53.8223C81.679 54.5059 80.6829 55.043 79.4785 55.4336C78.2741 55.8177 76.8548 56.0098 75.2207 56.0098L69.6055 56V40.7363ZM75.9629 53.3242C76.8874 53.3242 77.6979 53.207 78.3945 52.9727C79.0911 52.7318 79.6706 52.3932 80.1328 51.957C80.6016 51.5208 80.9531 50.9935 81.1875 50.375C81.4219 49.7565 81.5391 49.0664 81.5391 48.3047C81.5391 47.556 81.4219 46.8822 81.1875 46.2832C80.9531 45.6777 80.6016 45.1667 80.1328 44.75C79.6706 44.3268 79.0911 44.0013 78.3945 43.7734C77.6979 43.5456 76.8874 43.4316 75.9629 43.4316H72.7012V53.3242H75.9629ZM87.9062 40.7363H100.904V43.4512H91.002V46.498H99.7715V49.0469H91.002V53.2949H101.109V56H87.9062V40.7363ZM111.178 40.7363H114.273V44.7207H123.766V40.7363H126.871V56H123.766V47.3672H114.273V56H111.178V40.7363ZM130.309 48.3242C130.309 47.1719 130.52 46.1172 130.943 45.1602C131.367 44.2031 131.959 43.3828 132.721 42.6992C133.489 42.0091 134.407 41.4753 135.475 41.0977C136.549 40.7201 137.737 40.5312 139.039 40.5312C140.335 40.5312 141.52 40.7201 142.594 41.0977C143.668 41.4753 144.586 42.0091 145.348 42.6992C146.116 43.3828 146.712 44.2031 147.135 45.1602C147.558 46.1172 147.77 47.1719 147.77 48.3242C147.77 49.4831 147.558 50.5475 147.135 51.5176C146.712 52.4811 146.116 53.3112 145.348 54.0078C144.586 54.7044 143.668 55.248 142.594 55.6387C141.52 56.0228 140.335 56.2148 139.039 56.2148C137.737 56.2148 136.549 56.0228 135.475 55.6387C134.407 55.248 133.489 54.7044 132.721 54.0078C131.959 53.3112 131.367 52.4811 130.943 51.5176C130.52 50.5475 130.309 49.4831 130.309 48.3242ZM133.404 48.3242C133.404 49.112 133.544 49.8216 133.824 50.4531C134.111 51.0846 134.505 51.625 135.006 52.0742C135.514 52.5169 136.109 52.8587 136.793 53.0996C137.483 53.3405 138.232 53.4609 139.039 53.4609C139.846 53.4609 140.592 53.3405 141.275 53.0996C141.965 52.8587 142.561 52.5169 143.062 52.0742C143.564 51.625 143.958 51.0846 144.244 50.4531C144.531 49.8216 144.674 49.112 144.674 48.3242C144.674 47.5365 144.531 46.8301 144.244 46.2051C143.958 45.5801 143.564 45.0527 143.062 44.623C142.561 44.1868 141.965 43.8548 141.275 43.627C140.592 43.3991 139.846 43.2852 139.039 43.2852C138.232 43.2852 137.483 43.3991 136.793 43.627C136.109 43.8548 135.514 44.1868 135.006 44.623C134.505 45.0527 134.111 45.5801 133.824 46.2051C133.544 46.8301 133.404 47.5365 133.404 48.3242ZM151.207 40.7363H158.971C160.143 40.7363 161.158 40.86 162.018 41.1074C162.877 41.3483 163.59 41.6999 164.156 42.1621C164.723 42.6243 165.143 43.1875 165.416 43.8516C165.696 44.5156 165.836 45.2676 165.836 46.1074C165.836 46.6738 165.768 47.2142 165.631 47.7285C165.494 48.2363 165.283 48.7051 164.996 49.1348C164.716 49.5645 164.361 49.9486 163.932 50.2871C163.502 50.6191 162.997 50.8958 162.418 51.1172L165.738 56H161.949L159.078 51.6641H158.99L154.303 51.6543V56H151.207V40.7363ZM159.049 48.9785C159.635 48.9785 160.146 48.9102 160.582 48.7734C161.025 48.6367 161.393 48.4447 161.686 48.1973C161.985 47.9499 162.206 47.6504 162.35 47.2988C162.499 46.9408 162.574 46.5436 162.574 46.1074C162.574 45.2546 162.281 44.597 161.695 44.1348C161.109 43.666 160.227 43.4316 159.049 43.4316H154.303V48.9785H159.049ZM174.713 40.7363H177.994L185.377 56H182.125L180.904 53.4316H171.988L170.807 56H167.545L174.713 40.7363ZM179.684 50.8828L176.383 43.9492L173.17 50.8828H179.684ZM172.75 38.0215L179.332 36.1758L180.016 38.5977L173.355 40.1504L172.75 38.0215ZM187.75 40.7363H195.514C196.686 40.7363 197.701 40.86 198.561 41.1074C199.42 41.3483 200.133 41.6999 200.699 42.1621C201.266 42.6243 201.686 43.1875 201.959 43.8516C202.239 44.5156 202.379 45.2676 202.379 46.1074C202.379 46.6738 202.311 47.2142 202.174 47.7285C202.037 48.2363 201.826 48.7051 201.539 49.1348C201.259 49.5645 200.904 49.9486 200.475 50.2871C200.045 50.6191 199.54 50.8958 198.961 51.1172L202.281 56H198.492L195.621 51.6641H195.533L190.846 51.6543V56H187.75V40.7363ZM195.592 48.9785C196.178 48.9785 196.689 48.9102 197.125 48.7734C197.568 48.6367 197.936 48.4447 198.229 48.1973C198.528 47.9499 198.749 47.6504 198.893 47.2988C199.042 46.9408 199.117 46.5436 199.117 46.1074C199.117 45.2546 198.824 44.597 198.238 44.1348C197.652 43.666 196.77 43.4316 195.592 43.4316H190.846V48.9785H195.592ZM205.66 40.7363H208.775V56H205.66V40.7363ZM211.832 48.3242C211.832 47.1719 212.044 46.1172 212.467 45.1602C212.89 44.2031 213.482 43.3828 214.244 42.6992C215.012 42.0091 215.93 41.4753 216.998 41.0977C218.072 40.7201 219.26 40.5312 220.562 40.5312C221.858 40.5312 223.043 40.7201 224.117 41.0977C225.191 41.4753 226.109 42.0091 226.871 42.6992C227.639 43.3828 228.235 44.2031 228.658 45.1602C229.081 46.1172 229.293 47.1719 229.293 48.3242C229.293 49.4831 229.081 50.5475 228.658 51.5176C228.235 52.4811 227.639 53.3112 226.871 54.0078C226.109 54.7044 225.191 55.248 224.117 55.6387C223.043 56.0228 221.858 56.2148 220.562 56.2148C219.26 56.2148 218.072 56.0228 216.998 55.6387C215.93 55.248 215.012 54.7044 214.244 54.0078C213.482 53.3112 212.89 52.4811 212.467 51.5176C212.044 50.5475 211.832 49.4831 211.832 48.3242ZM214.928 48.3242C214.928 49.112 215.068 49.8216 215.348 50.4531C215.634 51.0846 216.028 51.625 216.529 52.0742C217.037 52.5169 217.633 52.8587 218.316 53.0996C219.007 53.3405 219.755 53.4609 220.562 53.4609C221.37 53.4609 222.115 53.3405 222.799 53.0996C223.489 52.8587 224.085 52.5169 224.586 52.0742C225.087 51.625 225.481 51.0846 225.768 50.4531C226.054 49.8216 226.197 49.112 226.197 48.3242C226.197 47.5365 226.054 46.8301 225.768 46.2051C225.481 45.5801 225.087 45.0527 224.586 44.623C224.085 44.1868 223.489 43.8548 222.799 43.627C222.115 43.3991 221.37 43.2852 220.562 43.2852C219.755 43.2852 219.007 43.3991 218.316 43.627C217.633 43.8548 217.037 44.1868 216.529 44.623C216.028 45.0527 215.634 45.5801 215.348 46.2051C215.068 46.8301 214.928 47.5365 214.928 48.3242Z" fill="#26534F"/>
</g>
<defs>
<filter id="filter0_d_5_38" x="0" y="0" width="304" height="80" filterUnits="userSpaceOnUse" color-interpolation-filters="sRGB">
<feFlood flood-opacity="0" result="BackgroundImageFix"/>
<feColorMatrix in="SourceAlpha" type="matrix" values="0 0 0 0 0 0 0 0 0 0 0 0 0 0 0 0 0 0 127 0" result="hardAlpha"/>
<feOffset dx="3" dy="4"/>
<feGaussianBlur stdDeviation="2.5"/>
<feComposite in2="hardAlpha" operator="out"/>
<feColorMatrix type="matrix" values="0 0 0 0 0 0 0 0 0 0 0 0 0 0 0 0 0 0 0.25 0"/>
<feBlend mode="normal" in2="BackgroundImageFix" result="effect1_dropShadow_5_38"/>
<feBlend mode="normal" in="SourceGraphic" in2="effect1_dropShadow_5_38" result="shape"/>
</filter>
</defs>
</svg>
