<svg width="302" height="78" viewBox="0 0 302 78" fill="none" xmlns="http://www.w3.org/2000/svg">
<g filter="url(#filter0_d_5_39)">
<rect x="2" width="294" height="70" rx="10" fill="#F2F3F3" shape-rendering="crispEdges"/>
<rect x="2.5" y="0.5" width="293" height="69" rx="9.5" stroke="black" shape-rendering="crispEdges"/>
<path d="M57.1445 14.7363H64.9082C66.0801 14.7363 67.0957 14.86 67.9551 15.1074C68.8145 15.3483 69.5273 15.6999 70.0938 16.1621C70.6602 16.6243 71.0801 17.1875 71.3535 17.8516C71.6335 18.5156 71.7734 19.2676 71.7734 20.1074C71.7734 20.6738 71.7051 21.2142 71.5684 21.7285C71.4316 22.2363 71.2201 22.7051 70.9336 23.1348C70.6536 23.5645 70.2988 23.9486 69.8691 24.2871C69.4395 24.6191 68.9349 24.8958 68.3555 25.1172L71.6758 30H67.8867L65.0156 25.6641H64.9277L60.2402 25.6543V30H57.1445V14.7363ZM64.9863 22.9785C65.5723 22.9785 66.0833 22.9102 66.5195 22.7734C66.9622 22.6367 67.3301 22.4447 67.623 22.1973C67.9225 21.9499 68.1439 21.6504 68.2871 21.2988C68.4368 20.9408 68.5117 20.5436 68.5117 20.1074C68.5117 19.2546 68.2188 18.597 67.6328 18.1348C67.0469 17.666 66.1647 17.4316 64.9863 17.4316H60.2402V22.9785H64.9863ZM75.4453 14.7363H88.4434V17.4512H78.541V20.498H87.3105V23.0469H78.541V27.2949H88.6484V30H75.4453V14.7363ZM92.7988 25.459C93.3522 25.7715 93.9121 26.0547 94.4785 26.3086C95.0514 26.556 95.6439 26.7676 96.2559 26.9434C96.8678 27.1126 97.5091 27.2428 98.1797 27.334C98.8568 27.4251 99.5762 27.4707 100.338 27.4707C101.256 27.4707 102.037 27.4121 102.682 27.2949C103.326 27.1712 103.85 27.0052 104.254 26.7969C104.664 26.582 104.96 26.3281 105.143 26.0352C105.331 25.7422 105.426 25.4232 105.426 25.0781C105.426 24.5247 105.195 24.0885 104.732 23.7695C104.27 23.444 103.557 23.2812 102.594 23.2812C102.171 23.2812 101.725 23.3105 101.256 23.3691C100.787 23.4212 100.312 23.4798 99.8301 23.5449C99.3548 23.61 98.8828 23.6719 98.4141 23.7305C97.9518 23.7826 97.5156 23.8086 97.1055 23.8086C96.4219 23.8086 95.7643 23.7207 95.1328 23.5449C94.5078 23.3691 93.9512 23.1055 93.4629 22.7539C92.9811 22.4023 92.597 21.9629 92.3105 21.4355C92.0241 20.9082 91.8809 20.293 91.8809 19.5898C91.8809 19.1732 91.9362 18.7598 92.0469 18.3496C92.1641 17.9395 92.3464 17.5488 92.5938 17.1777C92.8477 16.8001 93.1732 16.4518 93.5703 16.1328C93.9674 15.8073 94.446 15.5273 95.0059 15.293C95.5723 15.0586 96.2233 14.8763 96.959 14.7461C97.7012 14.6094 98.5443 14.541 99.4883 14.541C100.172 14.541 100.859 14.5801 101.549 14.6582C102.239 14.7298 102.91 14.834 103.561 14.9707C104.218 15.1074 104.85 15.2734 105.455 15.4688C106.061 15.6576 106.624 15.8691 107.145 16.1035L105.787 18.6035C105.357 18.4147 104.895 18.2422 104.4 18.0859C103.906 17.9232 103.388 17.7832 102.848 17.666C102.307 17.5488 101.747 17.4577 101.168 17.3926C100.595 17.321 100.009 17.2852 99.4102 17.2852C98.5573 17.2852 97.8542 17.347 97.3008 17.4707C96.7539 17.5944 96.3177 17.7539 95.9922 17.9492C95.6667 18.138 95.4388 18.3529 95.3086 18.5938C95.1849 18.8281 95.123 19.0625 95.123 19.2969C95.123 19.7526 95.3281 20.127 95.7383 20.4199C96.1484 20.7064 96.7734 20.8496 97.6133 20.8496C97.9518 20.8496 98.3392 20.8268 98.7754 20.7812C99.2181 20.7292 99.6803 20.6738 100.162 20.6152C100.65 20.5566 101.145 20.5046 101.646 20.459C102.154 20.4069 102.646 20.3809 103.121 20.3809C104.02 20.3809 104.814 20.4818 105.504 20.6836C106.201 20.8854 106.783 21.1751 107.252 21.5527C107.721 21.9238 108.076 22.3763 108.316 22.9102C108.557 23.4375 108.678 24.0299 108.678 24.6875C108.678 25.5664 108.473 26.3509 108.062 27.041C107.659 27.7246 107.079 28.304 106.324 28.7793C105.576 29.248 104.671 29.6061 103.609 29.8535C102.548 30.0944 101.367 30.2148 100.064 30.2148C99.2051 30.2148 98.3652 30.1595 97.5449 30.0488C96.7246 29.9447 95.9368 29.7949 95.1816 29.5996C94.4329 29.3978 93.7168 29.1602 93.0332 28.8867C92.3561 28.6068 91.7279 28.3008 91.1484 27.9688L92.7988 25.459ZM111.51 14.7363H114.605V23.1445C114.605 23.8346 114.7 24.4499 114.889 24.9902C115.077 25.5241 115.357 25.9766 115.729 26.3477C116.106 26.7188 116.572 27.002 117.125 27.1973C117.678 27.3861 118.323 27.4805 119.059 27.4805C119.788 27.4805 120.429 27.3861 120.982 27.1973C121.542 27.002 122.008 26.7188 122.379 26.3477C122.757 25.9766 123.04 25.5241 123.229 24.9902C123.417 24.4499 123.512 23.8346 123.512 23.1445V14.7363H126.607V23.5156C126.607 24.5182 126.438 25.4297 126.1 26.25C125.761 27.0703 125.27 27.7734 124.625 28.3594C123.98 28.9453 123.189 29.3978 122.252 29.7168C121.321 30.0358 120.257 30.1953 119.059 30.1953C117.861 30.1953 116.793 30.0358 115.855 29.7168C114.924 29.3978 114.137 28.9453 113.492 28.3594C112.848 27.7734 112.356 27.0703 112.018 26.25C111.679 25.4297 111.51 24.5182 111.51 23.5156V14.7363ZM130.387 14.7363H133.482V27.2852H142.359V30H130.387V14.7363ZM149.967 17.4512H144.332V14.7363H158.697V17.4512H153.062V30H149.967V17.4512ZM167.213 14.7363H170.494L177.877 30H174.625L173.404 27.4316H164.488L163.307 30H160.045L167.213 14.7363ZM172.184 24.8828L168.883 17.9492L165.67 24.8828H172.184ZM180.25 14.7363H185.846C187.48 14.7363 188.899 14.9121 190.104 15.2637C191.308 15.6152 192.304 16.1198 193.092 16.7773C193.886 17.4284 194.475 18.2227 194.859 19.1602C195.25 20.0911 195.445 21.1393 195.445 22.3047C195.445 23.4115 195.253 24.4368 194.869 25.3809C194.485 26.3184 193.899 27.1322 193.111 27.8223C192.324 28.5059 191.327 29.043 190.123 29.4336C188.919 29.8177 187.499 30.0098 185.865 30.0098L180.25 30V14.7363ZM186.607 27.3242C187.532 27.3242 188.342 27.207 189.039 26.9727C189.736 26.7318 190.315 26.3932 190.777 25.957C191.246 25.5208 191.598 24.9935 191.832 24.375C192.066 23.7565 192.184 23.0664 192.184 22.3047C192.184 21.556 192.066 20.8822 191.832 20.2832C191.598 19.6777 191.246 19.1667 190.777 18.75C190.315 18.3268 189.736 18.0013 189.039 17.7734C188.342 17.5456 187.532 17.4316 186.607 17.4316H183.346V27.3242H186.607ZM197.652 22.3242C197.652 21.1719 197.864 20.1172 198.287 19.1602C198.71 18.2031 199.303 17.3828 200.064 16.6992C200.833 16.0091 201.751 15.4753 202.818 15.0977C203.893 14.7201 205.081 14.5312 206.383 14.5312C207.678 14.5312 208.863 14.7201 209.938 15.0977C211.012 15.4753 211.93 16.0091 212.691 16.6992C213.46 17.3828 214.055 18.2031 214.479 19.1602C214.902 20.1172 215.113 21.1719 215.113 22.3242C215.113 23.4831 214.902 24.5475 214.479 25.5176C214.055 26.4811 213.46 27.3112 212.691 28.0078C211.93 28.7044 211.012 29.248 209.938 29.6387C208.863 30.0228 207.678 30.2148 206.383 30.2148C205.081 30.2148 203.893 30.0228 202.818 29.6387C201.751 29.248 200.833 28.7044 200.064 28.0078C199.303 27.3112 198.71 26.4811 198.287 25.5176C197.864 24.5475 197.652 23.4831 197.652 22.3242ZM200.748 22.3242C200.748 23.112 200.888 23.8216 201.168 24.4531C201.454 25.0846 201.848 25.625 202.35 26.0742C202.857 26.5169 203.453 26.8587 204.137 27.0996C204.827 27.3405 205.576 27.4609 206.383 27.4609C207.19 27.4609 207.936 27.3405 208.619 27.0996C209.309 26.8587 209.905 26.5169 210.406 26.0742C210.908 25.625 211.301 25.0846 211.588 24.4531C211.874 23.8216 212.018 23.112 212.018 22.3242C212.018 21.5365 211.874 20.8301 211.588 20.2051C211.301 19.5801 210.908 19.0527 210.406 18.623C209.905 18.1868 209.309 17.8548 208.619 17.627C207.936 17.3991 207.19 17.2852 206.383 17.2852C205.576 17.2852 204.827 17.3991 204.137 17.627C203.453 17.8548 202.857 18.1868 202.35 18.623C201.848 19.0527 201.454 19.5801 201.168 20.2051C200.888 20.8301 200.748 21.5365 200.748 22.3242ZM219.264 25.459C219.817 25.7715 220.377 26.0547 220.943 26.3086C221.516 26.556 222.109 26.7676 222.721 26.9434C223.333 27.1126 223.974 27.2428 224.645 27.334C225.322 27.4251 226.041 27.4707 226.803 27.4707C227.721 27.4707 228.502 27.4121 229.146 27.2949C229.791 27.1712 230.315 27.0052 230.719 26.7969C231.129 26.582 231.425 26.3281 231.607 26.0352C231.796 25.7422 231.891 25.4232 231.891 25.0781C231.891 24.5247 231.66 24.0885 231.197 23.7695C230.735 23.444 230.022 23.2812 229.059 23.2812C228.635 23.2812 228.189 23.3105 227.721 23.3691C227.252 23.4212 226.777 23.4798 226.295 23.5449C225.82 23.61 225.348 23.6719 224.879 23.7305C224.417 23.7826 223.98 23.8086 223.57 23.8086C222.887 23.8086 222.229 23.7207 221.598 23.5449C220.973 23.3691 220.416 23.1055 219.928 22.7539C219.446 22.4023 219.062 21.9629 218.775 21.4355C218.489 20.9082 218.346 20.293 218.346 19.5898C218.346 19.1732 218.401 18.7598 218.512 18.3496C218.629 17.9395 218.811 17.5488 219.059 17.1777C219.312 16.8001 219.638 16.4518 220.035 16.1328C220.432 15.8073 220.911 15.5273 221.471 15.293C222.037 15.0586 222.688 14.8763 223.424 14.7461C224.166 14.6094 225.009 14.541 225.953 14.541C226.637 14.541 227.324 14.5801 228.014 14.6582C228.704 14.7298 229.374 14.834 230.025 14.9707C230.683 15.1074 231.314 15.2734 231.92 15.4688C232.525 15.6576 233.089 15.8691 233.609 16.1035L232.252 18.6035C231.822 18.4147 231.36 18.2422 230.865 18.0859C230.37 17.9232 229.853 17.7832 229.312 17.666C228.772 17.5488 228.212 17.4577 227.633 17.3926C227.06 17.321 226.474 17.2852 225.875 17.2852C225.022 17.2852 224.319 17.347 223.766 17.4707C223.219 17.5944 222.783 17.7539 222.457 17.9492C222.132 18.138 221.904 18.3529 221.773 18.5938C221.65 18.8281 221.588 19.0625 221.588 19.2969C221.588 19.7526 221.793 20.127 222.203 20.4199C222.613 20.7064 223.238 20.8496 224.078 20.8496C224.417 20.8496 224.804 20.8268 225.24 20.7812C225.683 20.7292 226.145 20.6738 226.627 20.6152C227.115 20.5566 227.61 20.5046 228.111 20.459C228.619 20.4069 229.111 20.3809 229.586 20.3809C230.484 20.3809 231.279 20.4818 231.969 20.6836C232.665 20.8854 233.248 21.1751 233.717 21.5527C234.186 21.9238 234.54 22.3763 234.781 22.9102C235.022 23.4375 235.143 24.0299 235.143 24.6875C235.143 25.5664 234.938 26.3509 234.527 27.041C234.124 27.7246 233.544 28.304 232.789 28.7793C232.04 29.248 231.135 29.6061 230.074 29.8535C229.013 30.0944 227.831 30.2148 226.529 30.2148C225.67 30.2148 224.83 30.1595 224.01 30.0488C223.189 29.9447 222.402 29.7949 221.646 29.5996C220.898 29.3978 220.182 29.1602 219.498 28.8867C218.821 28.6068 218.193 28.3008 217.613 27.9688L219.264 25.459ZM75.4746 39.7363H81.0703C82.7044 39.7363 84.1237 39.9121 85.3281 40.2637C86.5326 40.6152 87.5286 41.1198 88.3164 41.7773C89.1107 42.4284 89.6999 43.2227 90.084 44.1602C90.4746 45.0911 90.6699 46.1393 90.6699 47.3047C90.6699 48.4115 90.4779 49.4368 90.0938 50.3809C89.7096 51.3184 89.1237 52.1322 88.3359 52.8223C87.5482 53.5059 86.5521 54.043 85.3477 54.4336C84.1432 54.8177 82.724 55.0098 81.0898 55.0098L75.4746 55V39.7363ZM81.832 52.3242C82.7565 52.3242 83.5671 52.207 84.2637 51.9727C84.9603 51.7318 85.5397 51.3932 86.002 50.957C86.4707 50.5208 86.8223 49.9935 87.0566 49.375C87.291 48.7565 87.4082 48.0664 87.4082 47.3047C87.4082 46.556 87.291 45.8822 87.0566 45.2832C86.8223 44.6777 86.4707 44.1667 86.002 43.75C85.5397 43.3268 84.9603 43.0013 84.2637 42.7734C83.5671 42.5456 82.7565 42.4316 81.832 42.4316H78.5703V52.3242H81.832ZM93.7754 39.7363H106.773V42.4512H96.8711V45.498H105.641V48.0469H96.8711V52.2949H106.979V55H93.7754V39.7363ZM117.057 39.7363H130.055V42.4512H120.152V45.498H128.922V48.0469H120.152V52.2949H130.26V55H117.057V39.7363ZM138.033 47.2461L132.164 39.7363H135.953L140.006 44.9902L144.078 39.7363H147.809L141.832 47.2168L148.014 55H144.215L139.869 49.5117L135.426 55H131.686L138.033 47.2461ZM155.543 39.7363H158.824L166.207 55H162.955L161.734 52.4316H152.818L151.637 55H148.375L155.543 39.7363ZM160.514 49.8828L157.213 42.9492L154 49.8828H160.514ZM168.59 39.7363H171.686L177.232 45.3027L182.779 39.7363H185.875V55H182.779V44.0234L177.232 49.3652L171.686 44.0234V55H168.59V39.7363ZM190.221 39.7363H203.219V42.4512H193.316V45.498H202.086V48.0469H193.316V52.2949H203.424V55H190.221V39.7363ZM207.574 50.459C208.128 50.7715 208.688 51.0547 209.254 51.3086C209.827 51.556 210.419 51.7676 211.031 51.9434C211.643 52.1126 212.285 52.2428 212.955 52.334C213.632 52.4251 214.352 52.4707 215.113 52.4707C216.031 52.4707 216.812 52.4121 217.457 52.2949C218.102 52.1712 218.626 52.0052 219.029 51.7969C219.439 51.582 219.736 51.3281 219.918 51.0352C220.107 50.7422 220.201 50.4232 220.201 50.0781C220.201 49.5247 219.97 49.0885 219.508 48.7695C219.046 48.444 218.333 48.2812 217.369 48.2812C216.946 48.2812 216.5 48.3105 216.031 48.3691C215.562 48.4212 215.087 48.4798 214.605 48.5449C214.13 48.61 213.658 48.6719 213.189 48.7305C212.727 48.7826 212.291 48.8086 211.881 48.8086C211.197 48.8086 210.54 48.7207 209.908 48.5449C209.283 48.3691 208.727 48.1055 208.238 47.7539C207.757 47.4023 207.372 46.9629 207.086 46.4355C206.799 45.9082 206.656 45.293 206.656 44.5898C206.656 44.1732 206.712 43.7598 206.822 43.3496C206.939 42.9395 207.122 42.5488 207.369 42.1777C207.623 41.8001 207.949 41.4518 208.346 41.1328C208.743 40.8073 209.221 40.5273 209.781 40.293C210.348 40.0586 210.999 39.8763 211.734 39.7461C212.477 39.6094 213.32 39.541 214.264 39.541C214.947 39.541 215.634 39.5801 216.324 39.6582C217.014 39.7298 217.685 39.834 218.336 39.9707C218.993 40.1074 219.625 40.2734 220.23 40.4688C220.836 40.6576 221.399 40.8691 221.92 41.1035L220.562 43.6035C220.133 43.4147 219.671 43.2422 219.176 43.0859C218.681 42.9232 218.163 42.7832 217.623 42.666C217.083 42.5488 216.523 42.4577 215.943 42.3926C215.37 42.321 214.785 42.2852 214.186 42.2852C213.333 42.2852 212.63 42.347 212.076 42.4707C211.529 42.5944 211.093 42.7539 210.768 42.9492C210.442 43.138 210.214 43.3529 210.084 43.5938C209.96 43.8281 209.898 44.0625 209.898 44.2969C209.898 44.7526 210.104 45.127 210.514 45.4199C210.924 45.7064 211.549 45.8496 212.389 45.8496C212.727 45.8496 213.115 45.8268 213.551 45.7812C213.993 45.7292 214.456 45.6738 214.938 45.6152C215.426 45.5566 215.921 45.5046 216.422 45.459C216.93 45.4069 217.421 45.3809 217.896 45.3809C218.795 45.3809 219.589 45.4818 220.279 45.6836C220.976 45.8854 221.559 46.1751 222.027 46.5527C222.496 46.9238 222.851 47.3763 223.092 47.9102C223.333 48.4375 223.453 49.0299 223.453 49.6875C223.453 50.5664 223.248 51.3509 222.838 52.041C222.434 52.7246 221.855 53.304 221.1 53.7793C220.351 54.248 219.446 54.6061 218.385 54.8535C217.324 55.0944 216.142 55.2148 214.84 55.2148C213.98 55.2148 213.141 55.1595 212.32 55.0488C211.5 54.9447 210.712 54.7949 209.957 54.5996C209.208 54.3978 208.492 54.1602 207.809 53.8867C207.132 53.6068 206.503 53.3008 205.924 52.9688L207.574 50.459Z" fill="#26534F"/>
</g>
<defs>
<filter id="filter0_d_5_39" x="0.4" y="0" width="301.2" height="77.6" filterUnits="userSpaceOnUse" color-interpolation-filters="sRGB">
<feFlood flood-opacity="0" result="BackgroundImageFix"/>
<feColorMatrix in="SourceAlpha" type="matrix" values="0 0 0 0 0 0 0 0 0 0 0 0 0 0 0 0 0 0 127 0" result="hardAlpha"/>
<feOffset dx="2" dy="4"/>
<feGaussianBlur stdDeviation="1.8"/>
<feComposite in2="hardAlpha" operator="out"/>
<feColorMatrix type="matrix" values="0 0 0 0 0 0 0 0 0 0 0 0 0 0 0 0 0 0 0.25 0"/>
<feBlend mode="normal" in2="BackgroundImageFix" result="effect1_dropShadow_5_39"/>
<feBlend mode="normal" in="SourceGraphic" in2="effect1_dropShadow_5_39" result="shape"/>
</filter>
</defs>
</svg>
