<svg width="40" height="41" viewBox="0 0 40 41" fill="none" xmlns="http://www.w3.org/2000/svg">
<g id="ic:baseline-whatsapp" clip-path="url(#clip0_9_253)">
<path id="Vector" d="M35.1905 8.20727C33.6623 6.66411 31.8422 5.44054 29.8364 4.60787C27.8305 3.7752 25.679 3.35007 23.5072 3.35727C14.4072 3.35727 6.99051 10.7739 6.99051 19.8739C6.99051 22.7906 7.75718 25.6239 9.19051 28.1239L6.85718 36.6906L15.6072 34.3906C18.0238 35.7073 20.7405 36.4073 23.5072 36.4073C32.6072 36.4073 40.0238 28.9906 40.0238 19.8906C40.0238 15.4739 38.3072 11.3239 35.1905 8.20727ZM23.5072 33.6073C21.0405 33.6073 18.6238 32.9406 16.5072 31.6906L16.0072 31.3906L10.8072 32.7573L12.1905 27.6906L11.8572 27.1739C10.4864 24.9857 9.75872 22.4561 9.75718 19.8739C9.75718 12.3073 15.9238 6.1406 23.4905 6.1406C27.1572 6.1406 30.6072 7.57393 33.1905 10.1739C34.4699 11.447 35.4837 12.9615 36.1732 14.6295C36.8627 16.2975 37.2142 18.0857 37.2072 19.8906C37.2405 27.4573 31.0738 33.6073 23.5072 33.6073ZM31.0405 23.3406C30.6238 23.1406 28.5905 22.1406 28.2238 21.9906C27.8405 21.8573 27.5738 21.7906 27.2905 22.1906C27.0072 22.6073 26.2238 23.5406 25.9905 23.8073C25.7572 24.0906 25.5072 24.1239 25.0905 23.9073C24.6738 23.7073 23.3405 23.2573 21.7738 21.8573C20.5405 20.7573 19.7238 19.4073 19.4738 18.9906C19.2405 18.5739 19.4405 18.3573 19.6572 18.1406C19.8405 17.9573 20.0738 17.6573 20.2738 17.4239C20.4738 17.1906 20.5572 17.0073 20.6905 16.7406C20.8238 16.4573 20.7572 16.2239 20.6572 16.0239C20.5572 15.8239 19.7238 13.7906 19.3905 12.9573C19.0572 12.1573 18.7072 12.2573 18.4572 12.2406H17.6572C17.3738 12.2406 16.9405 12.3406 16.5572 12.7573C16.1905 13.1739 15.1238 14.1739 15.1238 16.2073C15.1238 18.2406 16.6072 20.2073 16.8072 20.4739C17.0072 20.7573 19.7238 24.9239 23.8572 26.7073C24.8405 27.1406 25.6072 27.3906 26.2072 27.5739C27.1905 27.8906 28.0905 27.8406 28.8072 27.7406C29.6072 27.6239 31.2572 26.7406 31.5905 25.7739C31.9405 24.8073 31.9405 23.9906 31.8238 23.8073C31.7072 23.6239 31.4572 23.5406 31.0405 23.3406Z" fill="#26534F"/>
</g>
<defs>
<clipPath id="clip0_9_253">
<rect width="40" height="40" fill="white" transform="translate(0 0.5)"/>
</clipPath>
</defs>
</svg>
