<svg width="24" height="25" viewBox="0 0 24 25" fill="none" xmlns="http://www.w3.org/2000/svg">
<g id="icon-park-twotone:local-two">
<g id="Mask group">
<mask id="mask0_9_167" style="mask-type:luminance" maskUnits="userSpaceOnUse" x="3" y="1" width="18" height="23">
<g id="Group">
<g id="Group_2">
<path id="Vector" d="M12 22.5C12 22.5 19.5 16.5 19.5 10C19.5 5.858 16.142 2.5 12 2.5C7.858 2.5 4.5 5.858 4.5 10C4.5 16.5 12 22.5 12 22.5Z" fill="#555555" stroke="white" stroke-width="2" stroke-linejoin="round"/>
<path id="Vector_2" d="M12 13C12.394 13 12.7841 12.9224 13.1481 12.7716C13.512 12.6209 13.8427 12.3999 14.1213 12.1213C14.3999 11.8427 14.6209 11.512 14.7716 11.1481C14.9224 10.7841 15 10.394 15 10C15 9.60603 14.9224 9.21593 14.7716 8.85195C14.6209 8.48797 14.3999 8.15726 14.1213 7.87868C13.8427 7.6001 13.512 7.37913 13.1481 7.22836C12.7841 7.0776 12.394 7 12 7C11.2044 7 10.4413 7.31607 9.87868 7.87868C9.31607 8.44129 9 9.20435 9 10C9 10.7956 9.31607 11.5587 9.87868 12.1213C10.4413 12.6839 11.2044 13 12 13Z" fill="#555555" stroke="white" stroke-width="2" stroke-linejoin="round"/>
</g>
</g>
</mask>
<g mask="url(#mask0_9_167)">
<path id="Vector_3" d="M0 0.5H24V24.5H0V0.5Z" fill="#26534F"/>
</g>
</g>
</g>
</svg>
