<svg width="35" height="35" viewBox="0 0 35 35" fill="none" xmlns="http://www.w3.org/2000/svg">
<g id="material-symbols:mail-outline">
<path id="Vector" d="M5.83335 29.1666C5.03127 29.1666 4.34488 28.8812 3.77419 28.3105C3.20349 27.7398 2.91766 27.053 2.91669 26.2499V8.74992C2.91669 7.94784 3.20252 7.26145 3.77419 6.69075C4.34585 6.12006 5.03224 5.83422 5.83335 5.83325H29.1667C29.9688 5.83325 30.6556 6.11909 31.2273 6.69075C31.799 7.26242 32.0843 7.94881 32.0834 8.74992V26.2499C32.0834 27.052 31.798 27.7389 31.2273 28.3105C30.6566 28.8822 29.9697 29.1676 29.1667 29.1666H5.83335ZM17.5 18.9583L5.83335 11.6666V26.2499H29.1667V11.6666L17.5 18.9583ZM17.5 16.0416L29.1667 8.74992H5.83335L17.5 16.0416ZM5.83335 11.6666V8.74992V26.2499V11.6666Z" fill="#F2F3F3"/>
</g>
</svg>
