<svg width="35" height="35" viewBox="0 0 35 35" fill="none" xmlns="http://www.w3.org/2000/svg">
<path id="Vector" d="M17.5 0C14.0388 0 10.6554 1.02636 7.77753 2.94928C4.89967 4.87221 2.65665 7.60533 1.33212 10.803C0.00758248 14.0007 -0.338976 17.5194 0.336265 20.9141C1.01151 24.3087 2.67822 27.4269 5.12564 29.8744C7.57306 32.3218 10.6913 33.9885 14.0859 34.6637C17.4806 35.339 20.9993 34.9924 24.197 33.6679C27.3947 32.3433 30.1278 30.1003 32.0507 27.2225C33.9736 24.3446 35 20.9612 35 17.5C34.9951 12.8602 33.1498 8.41187 29.869 5.13104C26.5881 1.85022 22.1398 0.00489969 17.5 0ZM17.5 32.3077C14.5713 32.3077 11.7084 31.4392 9.27329 29.8121C6.83818 28.185 4.94024 25.8724 3.81948 23.1667C2.69872 20.4609 2.40548 17.4836 2.97684 14.6112C3.5482 11.7387 4.95849 9.10027 7.02939 7.02938C9.10028 4.95849 11.7388 3.54819 14.6112 2.97683C17.4836 2.40547 20.4609 2.69872 23.1667 3.81948C25.8724 4.94023 28.1851 6.83817 29.8121 9.27328C31.4392 11.7084 32.3077 14.5713 32.3077 17.5C32.3032 21.4259 30.7417 25.1897 27.9657 27.9657C25.1897 30.7417 21.4259 32.3032 17.5 32.3077ZM12.1154 17.5C12.1154 18.6301 12.471 19.7316 13.1318 20.6484C13.7926 21.5652 14.7251 22.2509 15.7972 22.6083C16.8694 22.9657 18.0268 22.9767 19.1055 22.6397C20.1843 22.3027 21.1296 21.6349 21.8077 20.7308C22.0221 20.4451 22.3412 20.2564 22.6948 20.2061C23.0484 20.1557 23.4075 20.2479 23.6931 20.4624C23.9788 20.6768 24.1675 20.9959 24.2178 21.3495C24.2682 21.7031 24.176 22.0622 23.9615 22.3478C22.9442 23.7036 21.5261 24.7049 19.908 25.21C18.29 25.7151 16.5541 25.6983 14.9461 25.1621C13.3381 24.6259 11.9396 23.5974 10.9486 22.2222C9.95761 20.8471 9.42434 19.195 9.42434 17.5C9.42434 15.805 9.95761 14.1529 10.9486 12.7778C11.9396 11.4026 13.3381 10.3741 14.9461 9.83789C16.5541 9.30167 18.29 9.28491 19.908 9.79C21.5261 10.2951 22.9442 11.2964 23.9615 12.6522C24.0677 12.7936 24.145 12.9545 24.189 13.1258C24.233 13.2971 24.2428 13.4754 24.2178 13.6505C24.1929 13.8256 24.1338 13.994 24.0437 14.1462C23.9537 14.2984 23.8346 14.4314 23.6931 14.5376C23.5517 14.6438 23.3908 14.7211 23.2195 14.7651C23.0482 14.809 22.8699 14.8188 22.6948 14.7939C22.5198 14.769 22.3513 14.7098 22.1991 14.6198C22.0469 14.5298 21.9139 14.4107 21.8077 14.2692C21.1296 13.3651 20.1843 12.6973 19.1055 12.3603C18.0268 12.0233 16.8694 12.0343 15.7972 12.3917C14.7251 12.7491 13.7926 13.4347 13.1318 14.3516C12.471 15.2684 12.1154 16.3699 12.1154 17.5Z" fill="white"/>
</svg>
