<svg width="37" height="37" viewBox="0 0 37 37" fill="none" xmlns="http://www.w3.org/2000/svg">
<path id="Vector" d="M25.5 11.5V20.25C25.5 21.6424 26.0531 22.9777 27.0377 23.9623C28.0223 24.9469 29.3576 25.5 30.75 25.5C32.1424 25.5 33.4777 24.9469 34.4623 23.9623C35.4469 22.9777 36 21.6424 36 20.25V18.5C36 14.5578 34.6689 10.7311 32.2225 7.63981C29.776 4.54855 26.3574 2.37389 22.5207 1.46816C18.6839 0.562422 14.6537 0.978676 11.0831 2.64948C7.51246 4.32028 4.61056 7.14775 2.84754 10.6738C1.08453 14.1998 0.563705 18.2178 1.36945 22.0768C2.17519 25.9358 4.26029 29.4097 7.28694 31.9357C10.3136 34.4616 14.1044 35.8917 18.0453 35.9941C21.9862 36.0965 25.8462 34.8653 29 32.5M25.5 18.5C25.5 19.4193 25.3189 20.3295 24.9672 21.1788C24.6154 22.0281 24.0998 22.7997 23.4498 23.4498C22.7997 24.0998 22.0281 24.6154 21.1788 24.9672C20.3295 25.3189 19.4193 25.5 18.5 25.5C17.5808 25.5 16.6705 25.3189 15.8212 24.9672C14.9719 24.6154 14.2003 24.0998 13.5503 23.4498C12.9003 22.7997 12.3846 22.0281 12.0329 21.1788C11.6811 20.3295 11.5 19.4193 11.5 18.5C11.5 16.6435 12.2375 14.863 13.5503 13.5503C14.863 12.2375 16.6435 11.5 18.5 11.5C20.3565 11.5 22.137 12.2375 23.4498 13.5503C24.7625 14.863 25.5 16.6435 25.5 18.5Z" stroke="white" stroke-width="1.5" stroke-linecap="round" stroke-linejoin="round"/>
</svg>
